<svg width="166" height="220" viewBox="0 0 166 220" fill="none" xmlns="http://www.w3.org/2000/svg">
<rect width="166" height="220" fill="#F2F2F2"/>
<g style="mix-blend-mode:luminosity">
<path d="M73.5032 114.224C72.6872 114.225 71.8881 114.001 71.2022 113.578C70.5164 113.155 69.9731 112.552 69.6379 111.84C69.3026 111.129 69.1898 110.339 69.3129 109.568C69.4361 108.796 69.79 108.075 70.3319 107.492C70.8738 106.908 71.5807 106.487 72.3672 106.279C73.1538 106.071 73.9864 106.086 74.7648 106.32C75.5431 106.554 76.2339 106.999 76.7539 107.601C77.2739 108.202 77.6009 108.935 77.6954 109.71H81.9427C81.8153 107.605 80.8349 105.63 79.2099 104.205C77.5848 102.781 75.443 102.018 73.2393 102.079C71.0356 102.14 68.9435 103.02 67.4073 104.532C65.8711 106.044 65.0117 108.07 65.0117 110.178C65.0117 112.287 65.8711 114.312 67.4073 115.825C68.9435 117.337 71.0356 118.217 73.2393 118.278C75.443 118.339 77.5848 117.576 79.2099 116.151C80.8349 114.726 81.8153 112.752 81.9427 110.647H77.7108C77.5906 111.633 77.0954 112.542 76.3196 113.202C75.5437 113.861 74.5413 114.225 73.5032 114.224V114.224Z" fill="#2A2A86"/>
<path d="M59.5843 102.546V110.491C59.5843 112.569 57.6537 114.253 55.4804 114.253C53.3071 114.253 51.3588 112.563 51.3588 110.491V102.546H47.2461V110.491C47.2461 111.525 47.4591 112.549 47.8729 113.504C48.2868 114.46 48.8933 115.328 49.658 116.059C50.4226 116.79 51.3304 117.37 52.3294 117.765C53.3284 118.161 54.3991 118.364 55.4804 118.364C57.0491 118.364 58.256 117.982 59.5843 116.819V118.387C59.5843 120.466 57.8721 122.15 55.4804 122.15C53.0886 122.15 51.1889 120.461 51.1889 118.387H47.2461C47.2815 120.453 48.1644 122.423 49.7046 123.872C51.2448 125.321 53.3188 126.133 55.4793 126.133C57.6398 126.133 59.7138 125.321 61.2539 123.872C62.7941 122.423 63.6771 120.453 63.7125 118.387V102.561L59.5843 102.546Z" fill="#2A2A86"/>
<path d="M113.989 102.546V110.491C113.989 112.569 112.058 114.253 109.885 114.253C107.711 114.253 105.763 112.565 105.763 110.491V102.546H101.65V110.491C101.65 111.525 101.863 112.549 102.277 113.504C102.691 114.46 103.298 115.328 104.062 116.059C104.827 116.79 105.735 117.37 106.734 117.765C107.733 118.161 108.803 118.364 109.885 118.364C111.453 118.364 112.66 117.982 113.989 116.819V118.387C113.989 120.466 112.276 122.15 109.885 122.15C107.493 122.15 105.593 120.461 105.593 118.387H101.65C101.686 120.453 102.569 122.423 104.109 123.872C105.649 125.321 107.723 126.133 109.884 126.133C112.044 126.133 114.118 125.321 115.658 123.872C117.198 122.423 118.081 120.453 118.117 118.387V102.561L113.989 102.546Z" fill="#FCAF17"/>
<path d="M95.8395 94.4531V103.466C94.5813 102.58 93.062 102.097 91.4995 102.088C87.0867 102.088 83.4991 105.464 83.252 109.712H87.4794C87.6042 108.682 88.136 107.737 88.9659 107.07C89.7958 106.403 90.861 106.064 91.9433 106.124C93.0256 106.184 94.043 106.637 94.7872 107.391C95.5313 108.145 95.9459 109.143 95.9459 110.179C95.9459 111.216 95.5313 112.214 94.7872 112.968C94.043 113.722 93.0256 114.175 91.9433 114.235C90.861 114.294 89.7958 113.956 88.9659 113.289C88.136 112.622 87.6042 111.677 87.4794 110.647H83.252C83.5013 114.897 87.0977 118.269 91.4995 118.269C93.0744 118.242 94.6016 117.748 95.8704 116.855V116.855L96.4705 118.083H99.9809V94.4531H95.8395Z" fill="#FCAF17"/>
</g>
</svg>
